%TF.GenerationSoftware,KiCad,Pcbnew,8.0.2*%
%TF.CreationDate,2024-06-17T23:38:42+07:00*%
%TF.ProjectId,Series Circuit,53657269-6573-4204-9369-72637569742e,rev?*%
%TF.SameCoordinates,Original*%
%TF.FileFunction,Legend,Top*%
%TF.FilePolarity,Positive*%
%FSLAX46Y46*%
G04 Gerber Fmt 4.6, Leading zero omitted, Abs format (unit mm)*
G04 Created by KiCad (PCBNEW 8.0.2) date 2024-06-17 23:38:42*
%MOMM*%
%LPD*%
G01*
G04 APERTURE LIST*
%ADD10C,2.000000*%
%ADD11C,1.000000*%
%ADD12C,0.500000*%
%ADD13C,0.300000*%
%ADD14C,1.250000*%
%ADD15C,0.120000*%
%ADD16C,6.400000*%
%ADD17C,4.800000*%
%ADD18C,4.900000*%
%ADD19C,5.100000*%
%ADD20C,6.500000*%
G04 APERTURE END LIST*
D10*
X171150000Y-130700000D02*
X86950000Y-130700000D01*
D11*
X192850000Y-65650000D02*
X179250000Y-65650000D01*
X192850000Y-130700000D02*
X179200000Y-130700000D01*
X179250000Y-105700000D02*
X192800000Y-105700000D01*
X90800000Y-85675000D02*
X104450000Y-85675000D01*
D10*
X86950000Y-114950000D02*
X86950000Y-130700000D01*
D11*
X179200000Y-90600000D02*
X192900000Y-90600000D01*
D10*
X86950000Y-81400000D02*
X86950000Y-65650000D01*
X118750000Y-65650000D02*
X86950000Y-65650000D01*
D11*
X90750000Y-110675000D02*
X104450000Y-110675000D01*
D10*
X175400000Y-95000000D02*
X175400000Y-101450000D01*
X171150000Y-65650000D02*
X149500000Y-65650000D01*
D12*
X178757518Y-76624357D02*
X180757518Y-79624357D01*
X180757518Y-76624357D02*
X178757518Y-79624357D01*
X183014661Y-79955785D02*
X181643232Y-79955785D01*
X182328947Y-79955785D02*
X182328947Y-77555785D01*
X182328947Y-77555785D02*
X182100375Y-77898642D01*
X182100375Y-77898642D02*
X181871804Y-78127214D01*
X181871804Y-78127214D02*
X181643232Y-78241500D01*
G36*
X104995185Y-49707211D02*
G01*
X104814665Y-49702369D01*
X104637484Y-49687843D01*
X104463642Y-49663634D01*
X104429274Y-49657630D01*
X104247975Y-49619484D01*
X104080212Y-49572044D01*
X103939445Y-49520854D01*
X104025785Y-48874587D01*
X104190995Y-48939035D01*
X104355370Y-48993465D01*
X104535218Y-49041767D01*
X104551518Y-49045557D01*
X104726123Y-49079626D01*
X104906002Y-49100663D01*
X105033653Y-49105397D01*
X105209686Y-49092534D01*
X105382054Y-49040278D01*
X105427739Y-49013928D01*
X105541942Y-48876567D01*
X105564515Y-48750634D01*
X105518099Y-48584307D01*
X105392856Y-48457322D01*
X105283269Y-48395016D01*
X104792586Y-48158223D01*
X104641783Y-48076423D01*
X104488471Y-47973119D01*
X104355462Y-47859344D01*
X104230094Y-47718830D01*
X104133811Y-47567361D01*
X104069038Y-47407237D01*
X104035777Y-47238458D01*
X104030914Y-47140951D01*
X104045068Y-46955379D01*
X104087528Y-46789114D01*
X104170716Y-46622739D01*
X104290875Y-46481581D01*
X104326692Y-46450233D01*
X104489915Y-46343269D01*
X104657892Y-46274746D01*
X104849350Y-46229621D01*
X105032144Y-46209566D01*
X105163590Y-46205745D01*
X105337975Y-46214468D01*
X105507220Y-46240637D01*
X105689243Y-46290175D01*
X105760276Y-46316021D01*
X105930862Y-46394544D01*
X106088925Y-46492267D01*
X106234467Y-46609191D01*
X106262073Y-46634880D01*
X105824389Y-47136677D01*
X105689220Y-47020175D01*
X105542707Y-46921533D01*
X105490143Y-46893045D01*
X105324730Y-46828931D01*
X105165300Y-46807560D01*
X104987823Y-46827470D01*
X104836183Y-46898174D01*
X104734803Y-47041762D01*
X104718214Y-47158048D01*
X104768824Y-47327056D01*
X104801134Y-47371761D01*
X104932500Y-47490171D01*
X105037927Y-47553844D01*
X105499546Y-47790637D01*
X105649478Y-47875529D01*
X105801495Y-47979860D01*
X105932888Y-48091993D01*
X106056054Y-48227466D01*
X106151097Y-48370715D01*
X106220220Y-48536542D01*
X106250941Y-48709382D01*
X106252669Y-48762602D01*
X106237002Y-48950921D01*
X106190001Y-49119441D01*
X106097918Y-49287793D01*
X105964909Y-49430286D01*
X105925262Y-49461869D01*
X105769141Y-49557466D01*
X105586514Y-49629583D01*
X105408879Y-49672710D01*
X105211769Y-49698586D01*
X105032635Y-49706971D01*
X104995185Y-49707211D01*
G37*
G36*
X106882694Y-49652501D02*
G01*
X106882694Y-46260456D01*
X107517847Y-46260456D01*
X107517847Y-49652501D01*
X106882694Y-49652501D01*
G37*
G36*
X106882694Y-49652501D02*
G01*
X106882694Y-49064364D01*
X109224983Y-49064364D01*
X109224983Y-49652501D01*
X106882694Y-49652501D01*
G37*
G36*
X106882694Y-48230030D02*
G01*
X106882694Y-47641893D01*
X108791574Y-47641893D01*
X108791574Y-48230030D01*
X106882694Y-48230030D01*
G37*
G36*
X106882694Y-46848593D02*
G01*
X106882694Y-46260456D01*
X109224983Y-46260456D01*
X109224983Y-46848593D01*
X106882694Y-46848593D01*
G37*
G36*
X110304658Y-48394161D02*
G01*
X110304658Y-47806025D01*
X110917586Y-47806025D01*
X111092336Y-47781972D01*
X111245567Y-47695579D01*
X111261235Y-47680362D01*
X111353559Y-47528839D01*
X111383853Y-47355235D01*
X111384334Y-47327309D01*
X111360772Y-47146808D01*
X111276142Y-46989409D01*
X111261235Y-46973401D01*
X111114201Y-46879795D01*
X110944874Y-46849080D01*
X110917586Y-46848593D01*
X110314061Y-46848593D01*
X110256786Y-46260456D01*
X110917586Y-46260456D01*
X111115226Y-46269802D01*
X111295256Y-46297842D01*
X111483031Y-46354181D01*
X111646836Y-46435964D01*
X111768161Y-46526314D01*
X111885409Y-46652971D01*
X111973859Y-46801062D01*
X112033512Y-46970587D01*
X112064367Y-47161548D01*
X112069068Y-47280292D01*
X112058490Y-47470139D01*
X112026753Y-47643456D01*
X111962987Y-47824769D01*
X111870423Y-47983583D01*
X111768161Y-48101803D01*
X111624903Y-48215720D01*
X111457674Y-48301657D01*
X111266474Y-48359615D01*
X111083509Y-48387024D01*
X110917586Y-48394161D01*
X110304658Y-48394161D01*
G37*
G36*
X109703699Y-49652501D02*
G01*
X109703699Y-46260456D01*
X110337997Y-46260456D01*
X110337997Y-49652501D01*
X109703699Y-49652501D01*
G37*
G36*
X111437334Y-49652501D02*
G01*
X110792777Y-48035979D01*
X111461270Y-48035979D01*
X112194731Y-49652501D01*
X111437334Y-49652501D01*
G37*
G36*
X113399215Y-49652501D02*
G01*
X113399215Y-46260456D01*
X114034368Y-46260456D01*
X114034368Y-49652501D01*
X113399215Y-49652501D01*
G37*
G36*
X112640108Y-49652501D02*
G01*
X112640108Y-49078041D01*
X114798604Y-49078041D01*
X114798604Y-49652501D01*
X112640108Y-49652501D01*
G37*
G36*
X112640108Y-46834915D02*
G01*
X112640108Y-46260456D01*
X114798604Y-46260456D01*
X114798604Y-46834915D01*
X112640108Y-46834915D01*
G37*
G36*
X115489323Y-49652501D02*
G01*
X115489323Y-46260456D01*
X116124477Y-46260456D01*
X116124477Y-49652501D01*
X115489323Y-49652501D01*
G37*
G36*
X115489323Y-49652501D02*
G01*
X115489323Y-49064364D01*
X117831612Y-49064364D01*
X117831612Y-49652501D01*
X115489323Y-49652501D01*
G37*
G36*
X115489323Y-48230030D02*
G01*
X115489323Y-47641893D01*
X117398203Y-47641893D01*
X117398203Y-48230030D01*
X115489323Y-48230030D01*
G37*
G36*
X115489323Y-46848593D02*
G01*
X115489323Y-46260456D01*
X117831612Y-46260456D01*
X117831612Y-46848593D01*
X115489323Y-46848593D01*
G37*
G36*
X119339567Y-49707211D02*
G01*
X119159047Y-49702369D01*
X118981866Y-49687843D01*
X118808024Y-49663634D01*
X118773657Y-49657630D01*
X118592358Y-49619484D01*
X118424594Y-49572044D01*
X118283828Y-49520854D01*
X118370168Y-48874587D01*
X118535377Y-48939035D01*
X118699752Y-48993465D01*
X118879600Y-49041767D01*
X118895900Y-49045557D01*
X119070505Y-49079626D01*
X119250384Y-49100663D01*
X119378036Y-49105397D01*
X119554068Y-49092534D01*
X119726436Y-49040278D01*
X119772121Y-49013928D01*
X119886324Y-48876567D01*
X119908897Y-48750634D01*
X119862481Y-48584307D01*
X119737239Y-48457322D01*
X119627652Y-48395016D01*
X119136968Y-48158223D01*
X118986165Y-48076423D01*
X118832853Y-47973119D01*
X118699844Y-47859344D01*
X118574477Y-47718830D01*
X118478193Y-47567361D01*
X118413421Y-47407237D01*
X118380159Y-47238458D01*
X118375297Y-47140951D01*
X118389450Y-46955379D01*
X118431910Y-46789114D01*
X118515098Y-46622739D01*
X118635258Y-46481581D01*
X118671075Y-46450233D01*
X118834298Y-46343269D01*
X119002275Y-46274746D01*
X119193732Y-46229621D01*
X119376526Y-46209566D01*
X119507973Y-46205745D01*
X119682357Y-46214468D01*
X119851602Y-46240637D01*
X120033625Y-46290175D01*
X120104658Y-46316021D01*
X120275244Y-46394544D01*
X120433308Y-46492267D01*
X120578849Y-46609191D01*
X120606455Y-46634880D01*
X120168772Y-47136677D01*
X120033603Y-47020175D01*
X119887090Y-46921533D01*
X119834525Y-46893045D01*
X119669112Y-46828931D01*
X119509683Y-46807560D01*
X119332205Y-46827470D01*
X119180565Y-46898174D01*
X119079185Y-47041762D01*
X119062596Y-47158048D01*
X119113207Y-47327056D01*
X119145516Y-47371761D01*
X119276883Y-47490171D01*
X119382310Y-47553844D01*
X119843929Y-47790637D01*
X119993861Y-47875529D01*
X120145877Y-47979860D01*
X120277270Y-48091993D01*
X120400436Y-48227466D01*
X120495480Y-48370715D01*
X120564602Y-48536542D01*
X120595324Y-48709382D01*
X120597052Y-48762602D01*
X120581385Y-48950921D01*
X120534384Y-49119441D01*
X120442300Y-49287793D01*
X120309291Y-49430286D01*
X120269644Y-49461869D01*
X120113524Y-49557466D01*
X119930896Y-49629583D01*
X119753261Y-49672710D01*
X119556152Y-49698586D01*
X119377017Y-49706971D01*
X119339567Y-49707211D01*
G37*
G36*
X125550907Y-49707211D02*
G01*
X125353190Y-49700352D01*
X125168228Y-49679776D01*
X124996023Y-49645481D01*
X124761632Y-49568319D01*
X124555942Y-49460293D01*
X124378953Y-49321401D01*
X124230665Y-49151645D01*
X124111078Y-48951024D01*
X124020191Y-48719539D01*
X123975546Y-48548068D01*
X123943656Y-48362879D01*
X123924522Y-48163973D01*
X123918144Y-47951349D01*
X123924569Y-47749271D01*
X123943843Y-47558920D01*
X123975966Y-47380296D01*
X124020939Y-47213400D01*
X124095225Y-47021271D01*
X124189589Y-46847467D01*
X124304029Y-46691987D01*
X124329327Y-46663090D01*
X124466149Y-46531336D01*
X124619625Y-46421912D01*
X124789756Y-46334820D01*
X124976542Y-46270060D01*
X125179982Y-46227630D01*
X125354725Y-46209765D01*
X125492777Y-46205745D01*
X125677523Y-46214401D01*
X125849961Y-46240367D01*
X126027125Y-46289521D01*
X126093737Y-46315166D01*
X126259012Y-46400816D01*
X126393983Y-46508486D01*
X126490387Y-46625477D01*
X126134770Y-47087951D01*
X126003438Y-46962722D01*
X125859508Y-46881077D01*
X125685760Y-46825939D01*
X125510061Y-46807632D01*
X125497907Y-46807560D01*
X125324787Y-46821550D01*
X125146270Y-46871799D01*
X124988377Y-46958593D01*
X124851106Y-47081932D01*
X124835398Y-47099919D01*
X124726565Y-47261058D01*
X124656844Y-47427299D01*
X124610930Y-47617103D01*
X124590523Y-47798545D01*
X124586636Y-47929123D01*
X124595825Y-48139336D01*
X124623392Y-48328872D01*
X124669336Y-48497732D01*
X124759182Y-48690714D01*
X124881699Y-48846938D01*
X125036888Y-48966403D01*
X125224748Y-49049110D01*
X125445279Y-49095058D01*
X125632118Y-49105397D01*
X125805920Y-49096421D01*
X125978546Y-49069493D01*
X126149997Y-49024613D01*
X126320272Y-48961782D01*
X126430548Y-49544789D01*
X126245577Y-49608077D01*
X126056434Y-49655820D01*
X125863119Y-49688019D01*
X125665631Y-49704673D01*
X125550907Y-49707211D01*
G37*
G36*
X127743597Y-49652501D02*
G01*
X127743597Y-46260456D01*
X128378751Y-46260456D01*
X128378751Y-49652501D01*
X127743597Y-49652501D01*
G37*
G36*
X126984491Y-49652501D02*
G01*
X126984491Y-49078041D01*
X129142987Y-49078041D01*
X129142987Y-49652501D01*
X126984491Y-49652501D01*
G37*
G36*
X126984491Y-46834915D02*
G01*
X126984491Y-46260456D01*
X129142987Y-46260456D01*
X129142987Y-46834915D01*
X126984491Y-46834915D01*
G37*
G36*
X130386793Y-48394161D02*
G01*
X130386793Y-47806025D01*
X130999721Y-47806025D01*
X131174471Y-47781972D01*
X131327703Y-47695579D01*
X131343371Y-47680362D01*
X131435694Y-47528839D01*
X131465988Y-47355235D01*
X131466469Y-47327309D01*
X131442907Y-47146808D01*
X131358277Y-46989409D01*
X131343371Y-46973401D01*
X131196336Y-46879795D01*
X131027009Y-46849080D01*
X130999721Y-46848593D01*
X130396197Y-46848593D01*
X130338922Y-46260456D01*
X130999721Y-46260456D01*
X131197362Y-46269802D01*
X131377391Y-46297842D01*
X131565167Y-46354181D01*
X131728971Y-46435964D01*
X131850297Y-46526314D01*
X131967545Y-46652971D01*
X132055995Y-46801062D01*
X132115647Y-46970587D01*
X132146502Y-47161548D01*
X132151204Y-47280292D01*
X132140625Y-47470139D01*
X132108889Y-47643456D01*
X132045122Y-47824769D01*
X131952558Y-47983583D01*
X131850297Y-48101803D01*
X131707038Y-48215720D01*
X131539809Y-48301657D01*
X131348609Y-48359615D01*
X131165644Y-48387024D01*
X130999721Y-48394161D01*
X130386793Y-48394161D01*
G37*
G36*
X129785834Y-49652501D02*
G01*
X129785834Y-46260456D01*
X130420133Y-46260456D01*
X130420133Y-49652501D01*
X129785834Y-49652501D01*
G37*
G36*
X131519470Y-49652501D02*
G01*
X130874913Y-48035979D01*
X131543405Y-48035979D01*
X132276867Y-49652501D01*
X131519470Y-49652501D01*
G37*
G36*
X134157537Y-49707211D02*
G01*
X133959819Y-49700352D01*
X133774858Y-49679776D01*
X133602652Y-49645481D01*
X133368261Y-49568319D01*
X133162571Y-49460293D01*
X132985582Y-49321401D01*
X132837294Y-49151645D01*
X132717707Y-48951024D01*
X132626821Y-48719539D01*
X132582175Y-48548068D01*
X132550285Y-48362879D01*
X132531151Y-48163973D01*
X132524773Y-47951349D01*
X132531198Y-47749271D01*
X132550472Y-47558920D01*
X132582596Y-47380296D01*
X132627569Y-47213400D01*
X132701855Y-47021271D01*
X132796218Y-46847467D01*
X132910659Y-46691987D01*
X132935956Y-46663090D01*
X133072778Y-46531336D01*
X133226254Y-46421912D01*
X133396385Y-46334820D01*
X133583171Y-46270060D01*
X133786611Y-46227630D01*
X133961354Y-46209765D01*
X134099407Y-46205745D01*
X134284152Y-46214401D01*
X134456591Y-46240367D01*
X134633755Y-46289521D01*
X134700366Y-46315166D01*
X134865641Y-46400816D01*
X135000612Y-46508486D01*
X135097017Y-46625477D01*
X134741399Y-47087951D01*
X134610068Y-46962722D01*
X134466137Y-46881077D01*
X134292389Y-46825939D01*
X134116690Y-46807632D01*
X134104536Y-46807560D01*
X133931416Y-46821550D01*
X133752900Y-46871799D01*
X133595006Y-46958593D01*
X133457736Y-47081932D01*
X133442027Y-47099919D01*
X133333194Y-47261058D01*
X133263473Y-47427299D01*
X133217559Y-47617103D01*
X133197153Y-47798545D01*
X133193266Y-47929123D01*
X133202455Y-48139336D01*
X133230021Y-48328872D01*
X133275965Y-48497732D01*
X133365811Y-48690714D01*
X133488329Y-48846938D01*
X133643517Y-48966403D01*
X133831377Y-49049110D01*
X134051908Y-49095058D01*
X134238747Y-49105397D01*
X134412549Y-49096421D01*
X134585175Y-49069493D01*
X134756626Y-49024613D01*
X134926902Y-48961782D01*
X135037177Y-49544789D01*
X134852207Y-49608077D01*
X134663064Y-49655820D01*
X134469748Y-49688019D01*
X134272260Y-49704673D01*
X134157537Y-49707211D01*
G37*
G36*
X136660537Y-49707211D02*
G01*
X136457352Y-49697196D01*
X136274152Y-49667150D01*
X136060974Y-49595930D01*
X135883325Y-49489101D01*
X135741206Y-49346661D01*
X135634617Y-49168612D01*
X135563558Y-48954953D01*
X135533580Y-48771340D01*
X135523587Y-48567696D01*
X135523587Y-46260456D01*
X136157886Y-46260456D01*
X136157886Y-48560002D01*
X136175316Y-48739841D01*
X136239714Y-48903465D01*
X136281839Y-48958362D01*
X136429225Y-49054082D01*
X136607403Y-49089635D01*
X136671650Y-49091719D01*
X136845379Y-49073026D01*
X137002633Y-49003965D01*
X137122445Y-48862728D01*
X137174863Y-48684623D01*
X137182851Y-48560002D01*
X137182851Y-46260456D01*
X137817149Y-46260456D01*
X137817149Y-48567696D01*
X137809970Y-48738908D01*
X137782401Y-48925960D01*
X137734155Y-49092936D01*
X137651736Y-49262368D01*
X137541173Y-49404475D01*
X137523081Y-49422546D01*
X137381295Y-49533465D01*
X137213248Y-49617141D01*
X137048305Y-49667180D01*
X136864068Y-49697203D01*
X136660537Y-49707211D01*
G37*
G36*
X139219103Y-49652501D02*
G01*
X139219103Y-46260456D01*
X139854257Y-46260456D01*
X139854257Y-49652501D01*
X139219103Y-49652501D01*
G37*
G36*
X138459997Y-49652501D02*
G01*
X138459997Y-49078041D01*
X140618493Y-49078041D01*
X140618493Y-49652501D01*
X138459997Y-49652501D01*
G37*
G36*
X138459997Y-46834915D02*
G01*
X138459997Y-46260456D01*
X140618493Y-46260456D01*
X140618493Y-46834915D01*
X138459997Y-46834915D01*
G37*
G36*
X142090544Y-49652501D02*
G01*
X142090544Y-46260456D01*
X142725698Y-46260456D01*
X142725698Y-49652501D01*
X142090544Y-49652501D01*
G37*
G36*
X141116870Y-46848593D02*
G01*
X141116870Y-46260456D01*
X143699372Y-46260456D01*
X143699372Y-46848593D01*
X141116870Y-46848593D01*
G37*
G36*
X147828297Y-49652501D02*
G01*
X147828297Y-46260456D01*
X148463451Y-46260456D01*
X148463451Y-49652501D01*
X147828297Y-49652501D01*
G37*
G36*
X146854623Y-46848593D02*
G01*
X146854623Y-46260456D01*
X149437125Y-46260456D01*
X149437125Y-46848593D01*
X146854623Y-46848593D01*
G37*
G36*
X150468929Y-48394161D02*
G01*
X150468929Y-47806025D01*
X151081856Y-47806025D01*
X151256606Y-47781972D01*
X151409838Y-47695579D01*
X151425506Y-47680362D01*
X151517830Y-47528839D01*
X151548123Y-47355235D01*
X151548604Y-47327309D01*
X151525043Y-47146808D01*
X151440412Y-46989409D01*
X151425506Y-46973401D01*
X151278472Y-46879795D01*
X151109145Y-46849080D01*
X151081856Y-46848593D01*
X150478332Y-46848593D01*
X150421057Y-46260456D01*
X151081856Y-46260456D01*
X151279497Y-46269802D01*
X151459526Y-46297842D01*
X151647302Y-46354181D01*
X151811107Y-46435964D01*
X151932432Y-46526314D01*
X152049680Y-46652971D01*
X152138130Y-46801062D01*
X152197783Y-46970587D01*
X152228637Y-47161548D01*
X152233339Y-47280292D01*
X152222760Y-47470139D01*
X152191024Y-47643456D01*
X152127258Y-47824769D01*
X152034693Y-47983583D01*
X151932432Y-48101803D01*
X151789174Y-48215720D01*
X151621944Y-48301657D01*
X151430744Y-48359615D01*
X151247780Y-48387024D01*
X151081856Y-48394161D01*
X150468929Y-48394161D01*
G37*
G36*
X149867969Y-49652501D02*
G01*
X149867969Y-46260456D01*
X150502268Y-46260456D01*
X150502268Y-49652501D01*
X149867969Y-49652501D01*
G37*
G36*
X151601605Y-49652501D02*
G01*
X150957048Y-48035979D01*
X151625541Y-48035979D01*
X152359002Y-49652501D01*
X151601605Y-49652501D01*
G37*
G36*
X152508601Y-49652501D02*
G01*
X153494243Y-46260456D01*
X154273011Y-46260456D01*
X155258653Y-49652501D01*
X154573918Y-49652501D01*
X153905426Y-47089660D01*
X153861828Y-47089660D01*
X153193336Y-49652501D01*
X152508601Y-49652501D01*
G37*
G36*
X153006124Y-48995976D02*
G01*
X153006124Y-48407839D01*
X154737195Y-48407839D01*
X154737195Y-48995976D01*
X153006124Y-48995976D01*
G37*
G36*
X156432362Y-49652501D02*
G01*
X156432362Y-46260456D01*
X157067516Y-46260456D01*
X157067516Y-49652501D01*
X156432362Y-49652501D01*
G37*
G36*
X155673255Y-49652501D02*
G01*
X155673255Y-49078041D01*
X157831752Y-49078041D01*
X157831752Y-49652501D01*
X155673255Y-49652501D01*
G37*
G36*
X155673255Y-46834915D02*
G01*
X155673255Y-46260456D01*
X157831752Y-46260456D01*
X157831752Y-46834915D01*
X155673255Y-46834915D01*
G37*
G36*
X159794487Y-49652501D02*
G01*
X159193528Y-47000756D01*
X158931089Y-47000756D01*
X158931089Y-46260456D01*
X159448273Y-46260456D01*
X160049232Y-48912200D01*
X160210799Y-48912200D01*
X160210799Y-49652501D01*
X159794487Y-49652501D01*
G37*
G36*
X158493405Y-49652501D02*
G01*
X158493405Y-46260456D01*
X159104623Y-46260456D01*
X159104623Y-49652501D01*
X158493405Y-49652501D01*
G37*
G36*
X160138137Y-49652501D02*
G01*
X160138137Y-46260456D01*
X160749355Y-46260456D01*
X160749355Y-49652501D01*
X160138137Y-49652501D01*
G37*
G36*
X162170115Y-49652501D02*
G01*
X162170115Y-46260456D01*
X162805269Y-46260456D01*
X162805269Y-49652501D01*
X162170115Y-49652501D01*
G37*
G36*
X161411008Y-49652501D02*
G01*
X161411008Y-49078041D01*
X163569505Y-49078041D01*
X163569505Y-49652501D01*
X161411008Y-49652501D01*
G37*
G36*
X161411008Y-46834915D02*
G01*
X161411008Y-46260456D01*
X163569505Y-46260456D01*
X163569505Y-46834915D01*
X161411008Y-46834915D01*
G37*
G36*
X165532240Y-49652501D02*
G01*
X164931281Y-47000756D01*
X164668842Y-47000756D01*
X164668842Y-46260456D01*
X165186026Y-46260456D01*
X165786985Y-48912200D01*
X165948552Y-48912200D01*
X165948552Y-49652501D01*
X165532240Y-49652501D01*
G37*
G36*
X164231158Y-49652501D02*
G01*
X164231158Y-46260456D01*
X164842376Y-46260456D01*
X164842376Y-49652501D01*
X164231158Y-49652501D01*
G37*
G36*
X165875890Y-49652501D02*
G01*
X165875890Y-46260456D01*
X166487107Y-46260456D01*
X166487107Y-49652501D01*
X165875890Y-49652501D01*
G37*
G36*
X168472924Y-49707211D02*
G01*
X168282867Y-49700359D01*
X168105071Y-49679802D01*
X167900070Y-49634835D01*
X167714228Y-49568455D01*
X167547545Y-49480661D01*
X167400020Y-49371455D01*
X167295796Y-49268673D01*
X167182758Y-49120656D01*
X167088878Y-48951226D01*
X167014158Y-48760384D01*
X166968177Y-48592292D01*
X166934457Y-48410496D01*
X166912999Y-48214996D01*
X166903803Y-48005791D01*
X166903419Y-47951349D01*
X166909764Y-47749271D01*
X166928798Y-47558920D01*
X166960521Y-47380296D01*
X167004933Y-47213400D01*
X167078292Y-47021271D01*
X167171478Y-46847467D01*
X167284491Y-46691987D01*
X167309473Y-46663090D01*
X167444484Y-46531336D01*
X167595731Y-46421912D01*
X167763216Y-46334820D01*
X167946937Y-46270060D01*
X168146896Y-46227630D01*
X168318554Y-46209765D01*
X168454117Y-46205745D01*
X168634063Y-46213119D01*
X168821175Y-46239040D01*
X168992058Y-46283624D01*
X169096964Y-46323715D01*
X169254644Y-46406512D01*
X169401094Y-46519765D01*
X169519260Y-46656251D01*
X169120045Y-47119580D01*
X168995451Y-46989215D01*
X168842219Y-46890480D01*
X168680307Y-46830962D01*
X168507125Y-46807884D01*
X168483182Y-46807560D01*
X168303184Y-46821591D01*
X168120113Y-46871987D01*
X167961191Y-46959034D01*
X167826419Y-47082734D01*
X167811270Y-47100773D01*
X167706551Y-47262180D01*
X167639465Y-47428392D01*
X167595287Y-47617921D01*
X167575652Y-47798932D01*
X167571912Y-47929123D01*
X167577777Y-48105736D01*
X167600297Y-48298719D01*
X167639707Y-48471024D01*
X167707032Y-48645915D01*
X167797346Y-48792662D01*
X167812125Y-48811328D01*
X167947458Y-48939983D01*
X168112391Y-49031879D01*
X168280988Y-49082135D01*
X168472246Y-49104248D01*
X168531054Y-49105397D01*
X168707614Y-49098060D01*
X168877877Y-49073750D01*
X168933688Y-49060944D01*
X169100882Y-49017574D01*
X169218353Y-48985718D01*
X169446598Y-49563596D01*
X169277728Y-49607023D01*
X169108949Y-49644690D01*
X169076448Y-49651646D01*
X168904009Y-49680948D01*
X168716877Y-49699397D01*
X168535896Y-49706723D01*
X168472924Y-49707211D01*
G37*
G36*
X168817428Y-49563596D02*
G01*
X168817428Y-47915445D01*
X169446598Y-47915445D01*
X169446598Y-49563596D01*
X168817428Y-49563596D01*
G37*
G36*
X168252373Y-48503582D02*
G01*
X168252373Y-47915445D01*
X169432920Y-47915445D01*
X169432920Y-48503582D01*
X168252373Y-48503582D01*
G37*
G36*
X173848221Y-49707211D02*
G01*
X173667700Y-49702369D01*
X173490519Y-49687843D01*
X173316677Y-49663634D01*
X173282310Y-49657630D01*
X173101011Y-49619484D01*
X172933247Y-49572044D01*
X172792481Y-49520854D01*
X172878821Y-48874587D01*
X173044030Y-48939035D01*
X173208405Y-48993465D01*
X173388254Y-49041767D01*
X173404553Y-49045557D01*
X173579158Y-49079626D01*
X173759037Y-49100663D01*
X173886689Y-49105397D01*
X174062721Y-49092534D01*
X174235089Y-49040278D01*
X174280775Y-49013928D01*
X174394977Y-48876567D01*
X174417551Y-48750634D01*
X174371134Y-48584307D01*
X174245892Y-48457322D01*
X174136305Y-48395016D01*
X173645621Y-48158223D01*
X173494819Y-48076423D01*
X173341507Y-47973119D01*
X173208497Y-47859344D01*
X173083130Y-47718830D01*
X172986846Y-47567361D01*
X172922074Y-47407237D01*
X172888813Y-47238458D01*
X172883950Y-47140951D01*
X172898103Y-46955379D01*
X172940564Y-46789114D01*
X173023751Y-46622739D01*
X173143911Y-46481581D01*
X173179728Y-46450233D01*
X173342951Y-46343269D01*
X173510928Y-46274746D01*
X173702385Y-46229621D01*
X173885179Y-46209566D01*
X174016626Y-46205745D01*
X174191010Y-46214468D01*
X174360256Y-46240637D01*
X174542279Y-46290175D01*
X174613311Y-46316021D01*
X174783897Y-46394544D01*
X174941961Y-46492267D01*
X175087503Y-46609191D01*
X175115108Y-46634880D01*
X174677425Y-47136677D01*
X174542256Y-47020175D01*
X174395743Y-46921533D01*
X174343179Y-46893045D01*
X174177765Y-46828931D01*
X174018336Y-46807560D01*
X173840858Y-46827470D01*
X173689218Y-46898174D01*
X173587839Y-47041762D01*
X173571249Y-47158048D01*
X173621860Y-47327056D01*
X173654170Y-47371761D01*
X173785536Y-47490171D01*
X173890963Y-47553844D01*
X174352582Y-47790637D01*
X174502514Y-47875529D01*
X174654530Y-47979860D01*
X174785923Y-48091993D01*
X174909089Y-48227466D01*
X175004133Y-48370715D01*
X175073256Y-48536542D01*
X175103977Y-48709382D01*
X175105705Y-48762602D01*
X175090038Y-48950921D01*
X175043037Y-49119441D01*
X174950954Y-49287793D01*
X174817944Y-49430286D01*
X174778297Y-49461869D01*
X174622177Y-49557466D01*
X174439550Y-49629583D01*
X174261914Y-49672710D01*
X174064805Y-49698586D01*
X173885670Y-49706971D01*
X173848221Y-49707211D01*
G37*
G36*
X175735729Y-49652501D02*
G01*
X175735729Y-46260456D01*
X176370883Y-46260456D01*
X176370883Y-49652501D01*
X175735729Y-49652501D01*
G37*
G36*
X175735729Y-49652501D02*
G01*
X175735729Y-49064364D01*
X178078018Y-49064364D01*
X178078018Y-49652501D01*
X175735729Y-49652501D01*
G37*
G36*
X175735729Y-48230030D02*
G01*
X175735729Y-47641893D01*
X177644609Y-47641893D01*
X177644609Y-48230030D01*
X175735729Y-48230030D01*
G37*
G36*
X175735729Y-46848593D02*
G01*
X175735729Y-46260456D01*
X178078018Y-46260456D01*
X178078018Y-46848593D01*
X175735729Y-46848593D01*
G37*
G36*
X179385939Y-49652501D02*
G01*
X179385939Y-46260456D01*
X180021092Y-46260456D01*
X180021092Y-49652501D01*
X179385939Y-49652501D01*
G37*
G36*
X178412264Y-46848593D02*
G01*
X178412264Y-46260456D01*
X180994766Y-46260456D01*
X180994766Y-46848593D01*
X178412264Y-46848593D01*
G37*
X178757518Y-116674357D02*
X180757518Y-119674357D01*
X180757518Y-116674357D02*
X178757518Y-119674357D01*
X181643232Y-117834357D02*
X181757518Y-117720071D01*
X181757518Y-117720071D02*
X181986090Y-117605785D01*
X181986090Y-117605785D02*
X182557518Y-117605785D01*
X182557518Y-117605785D02*
X182786090Y-117720071D01*
X182786090Y-117720071D02*
X182900375Y-117834357D01*
X182900375Y-117834357D02*
X183014661Y-118062928D01*
X183014661Y-118062928D02*
X183014661Y-118291500D01*
X183014661Y-118291500D02*
X182900375Y-118634357D01*
X182900375Y-118634357D02*
X181528947Y-120005785D01*
X181528947Y-120005785D02*
X183014661Y-120005785D01*
X193257143Y-116511857D02*
X194257143Y-119511857D01*
X194257143Y-119511857D02*
X195257143Y-116511857D01*
X195885715Y-117443285D02*
X197371429Y-117443285D01*
X197371429Y-117443285D02*
X196571429Y-118357571D01*
X196571429Y-118357571D02*
X196914286Y-118357571D01*
X196914286Y-118357571D02*
X197142858Y-118471857D01*
X197142858Y-118471857D02*
X197257143Y-118586142D01*
X197257143Y-118586142D02*
X197371429Y-118814714D01*
X197371429Y-118814714D02*
X197371429Y-119386142D01*
X197371429Y-119386142D02*
X197257143Y-119614714D01*
X197257143Y-119614714D02*
X197142858Y-119729000D01*
X197142858Y-119729000D02*
X196914286Y-119843285D01*
X196914286Y-119843285D02*
X196228572Y-119843285D01*
X196228572Y-119843285D02*
X196000000Y-119729000D01*
X196000000Y-119729000D02*
X195885715Y-119614714D01*
X131907142Y-66154714D02*
X133335714Y-66154714D01*
X131621428Y-67011857D02*
X132621428Y-64011857D01*
X132621428Y-64011857D02*
X133621428Y-67011857D01*
X136192857Y-67011857D02*
X134478571Y-67011857D01*
X135335714Y-67011857D02*
X135335714Y-64011857D01*
X135335714Y-64011857D02*
X135050000Y-64440428D01*
X135050000Y-64440428D02*
X134764285Y-64726142D01*
X134764285Y-64726142D02*
X134478571Y-64869000D01*
X84121428Y-96536857D02*
X85121428Y-99536857D01*
X85121428Y-99536857D02*
X86121428Y-96536857D01*
X86978571Y-99868285D02*
X86978571Y-97468285D01*
X88121428Y-99868285D02*
X88121428Y-97468285D01*
X88121428Y-97468285D02*
X89492857Y-99868285D01*
X89492857Y-99868285D02*
X89492857Y-97468285D01*
X104807143Y-96536857D02*
X105807143Y-99536857D01*
X105807143Y-99536857D02*
X106807143Y-96536857D01*
X108921429Y-99868285D02*
X107550000Y-99868285D01*
X108235715Y-99868285D02*
X108235715Y-97468285D01*
X108235715Y-97468285D02*
X108007143Y-97811142D01*
X108007143Y-97811142D02*
X107778572Y-98039714D01*
X107778572Y-98039714D02*
X107550000Y-98154000D01*
X193257143Y-76511857D02*
X194257143Y-79511857D01*
X194257143Y-79511857D02*
X195257143Y-76511857D01*
X196000000Y-77671857D02*
X196114286Y-77557571D01*
X196114286Y-77557571D02*
X196342858Y-77443285D01*
X196342858Y-77443285D02*
X196914286Y-77443285D01*
X196914286Y-77443285D02*
X197142858Y-77557571D01*
X197142858Y-77557571D02*
X197257143Y-77671857D01*
X197257143Y-77671857D02*
X197371429Y-77900428D01*
X197371429Y-77900428D02*
X197371429Y-78129000D01*
X197371429Y-78129000D02*
X197257143Y-78471857D01*
X197257143Y-78471857D02*
X195885715Y-79843285D01*
X195885715Y-79843285D02*
X197371429Y-79843285D01*
D13*
%TO.C,MES3*%
X193800000Y-111700000D02*
X197000000Y-111700000D01*
X193800000Y-124850000D02*
X197000000Y-124850000D01*
X195400000Y-113300000D02*
X195400000Y-110100000D01*
D11*
X197900000Y-105650000D02*
G75*
G02*
X192900000Y-105650000I-2500000J0D01*
G01*
X192900000Y-105650000D02*
G75*
G02*
X197900000Y-105650000I2500000J0D01*
G01*
D12*
X199400000Y-118150000D02*
G75*
G02*
X191400000Y-118150000I-4000000J0D01*
G01*
X191400000Y-118150000D02*
G75*
G02*
X199400000Y-118150000I4000000J0D01*
G01*
D11*
X197900000Y-130650000D02*
G75*
G02*
X192900000Y-130650000I-2500000J0D01*
G01*
X192900000Y-130650000D02*
G75*
G02*
X197900000Y-130650000I2500000J0D01*
G01*
D13*
%TO.C,A1*%
X127600000Y-67250000D02*
X127600000Y-64050000D01*
X129200000Y-65650000D02*
X126000000Y-65650000D01*
X142650000Y-65650000D02*
X139450000Y-65650000D01*
D14*
X124050000Y-65650000D02*
G75*
G02*
X119050000Y-65650000I-2500000J0D01*
G01*
X119050000Y-65650000D02*
G75*
G02*
X124050000Y-65650000I2500000J0D01*
G01*
D12*
X138050000Y-65650000D02*
G75*
G02*
X130050000Y-65650000I-4000000J0D01*
G01*
X130050000Y-65650000D02*
G75*
G02*
X138050000Y-65650000I4000000J0D01*
G01*
D14*
X149050000Y-65650000D02*
G75*
G02*
X144050000Y-65650000I-2500000J0D01*
G01*
X144050000Y-65650000D02*
G75*
G02*
X149050000Y-65650000I2500000J0D01*
G01*
D15*
%TO.C,R1*%
X173680000Y-74280000D02*
X173680000Y-83520000D01*
X173680000Y-83520000D02*
X177120000Y-83520000D01*
D12*
X175400000Y-72900000D02*
X175400000Y-69350000D01*
D15*
X175400000Y-85480000D02*
X175400000Y-83520000D01*
D12*
X175400000Y-86950000D02*
X175400000Y-83400000D01*
D15*
X177120000Y-83520000D02*
X177120000Y-74280000D01*
D12*
X177150000Y-83400000D02*
X173650000Y-83400000D01*
X173650000Y-72900000D01*
X177150000Y-72900000D01*
X177150000Y-83400000D01*
D11*
X179150000Y-65650000D02*
G75*
G02*
X171650000Y-65650000I-3750000J0D01*
G01*
X171650000Y-65650000D02*
G75*
G02*
X179150000Y-65650000I3750000J0D01*
G01*
X179150000Y-90650000D02*
G75*
G02*
X171650000Y-90650000I-3750000J0D01*
G01*
X171650000Y-90650000D02*
G75*
G02*
X179150000Y-90650000I3750000J0D01*
G01*
D13*
%TO.C,V1*%
X85300000Y-92325000D02*
X88500000Y-92325000D01*
X85350000Y-104325000D02*
X88550000Y-104325000D01*
X86900000Y-93925000D02*
X86900000Y-90725000D01*
D11*
X90700000Y-85675000D02*
G75*
G02*
X83200000Y-85675000I-3750000J0D01*
G01*
X83200000Y-85675000D02*
G75*
G02*
X90700000Y-85675000I3750000J0D01*
G01*
X90700000Y-110675000D02*
G75*
G02*
X83200000Y-110675000I-3750000J0D01*
G01*
X83200000Y-110675000D02*
G75*
G02*
X90700000Y-110675000I3750000J0D01*
G01*
D13*
%TO.C,MES1*%
X105350000Y-91725000D02*
X108550000Y-91725000D01*
X105350000Y-104875000D02*
X108550000Y-104875000D01*
X106950000Y-93325000D02*
X106950000Y-90125000D01*
D11*
X109450000Y-85675000D02*
G75*
G02*
X104450000Y-85675000I-2500000J0D01*
G01*
X104450000Y-85675000D02*
G75*
G02*
X109450000Y-85675000I2500000J0D01*
G01*
D12*
X110950000Y-98175000D02*
G75*
G02*
X102950000Y-98175000I-4000000J0D01*
G01*
X102950000Y-98175000D02*
G75*
G02*
X110950000Y-98175000I4000000J0D01*
G01*
D11*
X109450000Y-110675000D02*
G75*
G02*
X104450000Y-110675000I-2500000J0D01*
G01*
X104450000Y-110675000D02*
G75*
G02*
X109450000Y-110675000I2500000J0D01*
G01*
D13*
%TO.C,MES2*%
X193800000Y-71700000D02*
X197000000Y-71700000D01*
X193800000Y-84850000D02*
X197000000Y-84850000D01*
X195400000Y-73300000D02*
X195400000Y-70100000D01*
D11*
X197900000Y-65650000D02*
G75*
G02*
X192900000Y-65650000I-2500000J0D01*
G01*
X192900000Y-65650000D02*
G75*
G02*
X197900000Y-65650000I2500000J0D01*
G01*
D12*
X199400000Y-78150000D02*
G75*
G02*
X191400000Y-78150000I-4000000J0D01*
G01*
X191400000Y-78150000D02*
G75*
G02*
X199400000Y-78150000I4000000J0D01*
G01*
D11*
X197900000Y-90650000D02*
G75*
G02*
X192900000Y-90650000I-2500000J0D01*
G01*
X192900000Y-90650000D02*
G75*
G02*
X197900000Y-90650000I2500000J0D01*
G01*
D15*
%TO.C,R2*%
X173680000Y-114330000D02*
X173680000Y-123570000D01*
X173680000Y-123570000D02*
X177120000Y-123570000D01*
D12*
X175400000Y-112950000D02*
X175400000Y-109400000D01*
D15*
X175400000Y-125530000D02*
X175400000Y-123570000D01*
D12*
X175400000Y-127000000D02*
X175400000Y-123450000D01*
D15*
X177120000Y-123570000D02*
X177120000Y-114330000D01*
D12*
X177150000Y-123450000D02*
X173650000Y-123450000D01*
X173650000Y-112950000D01*
X177150000Y-112950000D01*
X177150000Y-123450000D01*
D11*
X179150000Y-105700000D02*
G75*
G02*
X171650000Y-105700000I-3750000J0D01*
G01*
X171650000Y-105700000D02*
G75*
G02*
X179150000Y-105700000I3750000J0D01*
G01*
X179150000Y-130700000D02*
G75*
G02*
X171650000Y-130700000I-3750000J0D01*
G01*
X171650000Y-130700000D02*
G75*
G02*
X179150000Y-130700000I3750000J0D01*
G01*
%TD*%
%LPC*%
D16*
%TO.C,H3*%
X72400000Y-141300000D03*
%TD*%
D17*
%TO.C,MES3*%
X195400000Y-130650000D03*
X195400000Y-105650000D03*
%TD*%
D18*
%TO.C,A1*%
X146550000Y-65650000D03*
D19*
X121550000Y-65650000D03*
%TD*%
D16*
%TO.C,H4*%
X212400000Y-141300000D03*
%TD*%
%TO.C,H1*%
X72400000Y-44300000D03*
%TD*%
D20*
%TO.C,R1*%
X175400000Y-90650000D03*
X175400000Y-65650000D03*
%TD*%
%TO.C,V1*%
X86950000Y-85675000D03*
X86950000Y-110675000D03*
%TD*%
D17*
%TO.C,MES1*%
X106950000Y-110675000D03*
X106950000Y-85675000D03*
%TD*%
%TO.C,MES2*%
X195400000Y-90650000D03*
X195400000Y-65650000D03*
%TD*%
D16*
%TO.C,H2*%
X212400000Y-44300000D03*
%TD*%
D20*
%TO.C,R2*%
X175400000Y-130700000D03*
X175400000Y-105700000D03*
%TD*%
%LPD*%
M02*
